<svg xmlns="http://www.w3.org/2000/svg" xmlns:xlink="http://www.w3.org/1999/xlink" width="26" height="26" viewBox="0 0 26 26">
    <defs>
        <path id="a" d="M17.586 8H6a1 1 0 1 1 0-2h11.586l-2.293-2.293a.999.999 0 1 1 1.414-1.414l4 4a.999.999 0 0 1 0 1.414l-4 4a.999.999 0 1 1-1.414-1.414L17.586 8zm0 11H6a1 1 0 1 1 0-2h11.586l-2.293-2.293a.999.999 0 1 1 1.414-1.414l4 4a.999.999 0 0 1 0 1.414l-4 4a.999.999 0 1 1-1.414-1.414L17.586 19z"/>
    </defs>
    <g fill="none" fill-rule="evenodd">
        <path d="M0 0h26v26H0z"/>
        <mask id="b" fill="#fff">
            <use xlink:href="#a"/>
        </mask>
        <use fill="#637381" xlink:href="#a"/>
        <g fill="#919EAB" mask="url(#b)">
            <path d="M0 0h26v26H0z"/>
        </g>
    </g>
</svg>
