<svg xmlns="http://www.w3.org/2000/svg" xmlns:xlink="http://www.w3.org/1999/xlink" width="26" height="26" viewBox="0 0 26 26">
    <defs>
        <path id="a" d="M17.139 7.418l-1.45 1.45C15.065 7.742 13.885 7 12.559 7c-1.98 0-3.6 1.644-3.6 3.685.006.063.006.063.012.163l.085 2.083H6.971C5.333 12.928 4 14.28 4 15.964a3.03 3.03 0 0 0 1.803 2.789l-1.475 1.474A5.038 5.038 0 0 1 2 15.965c0-2.64 2-4.805 4.556-5.018l.416-.017v-.642C7.174 7.334 9.6 5 12.56 5c1.894 0 3.566.956 4.579 2.418zm3.123 2.534C22.439 10.73 24 12.838 24 15.315 24 18.455 21.492 21 18.4 21c-.081 0-.16-.01-.24-.012l-8.933-.002 2-2 6.995.003.13.006C20.382 19 22 17.356 22 15.315c0-1.98-1.522-3.585-3.421-3.68l1.683-1.683zm1.416-4.245a1 1 0 0 1 0 1.414L6.12 22.678a1 1 0 0 1-1.414-1.415L20.263 5.707a1 1 0 0 1 1.415 0z"/>
    </defs>
    <g fill="none" fill-rule="evenodd">
        <path d="M0 0h26v26H0z"/>
        <mask id="b" fill="#fff">
            <use xlink:href="#a"/>
        </mask>
        <g fill="#919EAB" mask="url(#b)">
            <path d="M0 0h26v26H0z"/>
        </g>
    </g>
</svg>
