<svg xmlns="http://www.w3.org/2000/svg" xmlns:xlink="http://www.w3.org/1999/xlink" width="26" height="26" viewBox="0 0 26 26">
    <defs>
        <path id="a" d="M7.644 19.72L4.12 23.243a1 1 0 0 1-1.414-1.414L6.234 18.3A9.958 9.958 0 0 1 4 12C4 6.477 8.477 2 14 2s10 4.477 10 10-4.477 10-10 10a9.959 9.959 0 0 1-6.356-2.28zM21.938 13H19a1 1 0 0 1 0-2h2.938A8.004 8.004 0 0 0 15 4.062V7a1 1 0 0 1-2 0V4.062A8.004 8.004 0 0 0 6.062 11H9a1 1 0 0 1 0 2H6.062A8.004 8.004 0 0 0 13 19.938V17a1 1 0 0 1 2 0v2.938A8.004 8.004 0 0 0 21.938 13z"/>
    </defs>
    <g fill="none" fill-rule="evenodd">
        <path d="M0 0h26v26H0z"/>
        <mask id="b" fill="#fff">
            <use xlink:href="#a"/>
        </mask>
        <use fill="#979797" fill-rule="nonzero" xlink:href="#a"/>
        <g fill="#919EAB" mask="url(#b)">
            <path d="M0 0h26v26H0z"/>
        </g>
    </g>
</svg>
