<svg xmlns="http://www.w3.org/2000/svg" xmlns:xlink="http://www.w3.org/1999/xlink" width="26" height="26" viewBox="0 0 26 26">
    <defs>
        <path id="a" d="M9 17a1 1 0 1 1-2 0V5.414L3.707 8.707a.999.999 0 1 1-1.414-1.414l5-5a.999.999 0 0 1 1.414 0l5 5a.999.999 0 1 1-1.414 1.414L9 5.414V17zm10-8v11.586l3.293-3.293a.999.999 0 1 1 1.414 1.414l-5 5a.999.999 0 0 1-1.414 0l-5-5a.997.997 0 0 1 0-1.414.999.999 0 0 1 1.414 0L17 20.586V9a1 1 0 1 1 2 0z"/>
    </defs>
    <g fill="none" fill-rule="evenodd">
        <path d="M0 0h26v26H0z"/>
        <mask id="b" fill="#fff">
            <use xlink:href="#a"/>
        </mask>
        <use fill="#637381" xlink:href="#a"/>
        <g fill="#919EAB" mask="url(#b)">
            <path d="M0 0h26v26H0z"/>
        </g>
    </g>
</svg>
