<svg xmlns="http://www.w3.org/2000/svg" xmlns:xlink="http://www.w3.org/1999/xlink" width="822" height="600" viewBox="0 0 822 600">
    <defs>
        <path id="a" d="M0 0h822v600H0z"/>
        <path id="c" d="M0 0h9v160H0z"/>
        <path id="e" d="M0 0h9v160H0z"/>
        <path id="g" d="M0 0h9v160H0z"/>
        <path id="i" d="M0 0h9v160H0z"/>
    </defs>
    <g fill="none" fill-rule="evenodd">
        <mask id="b" fill="#fff">
            <use xlink:href="#a"/>
        </mask>
        <g mask="url(#b)" opacity=".645">
            <g opacity=".592">
                <path stroke="#C4CDD5" d="M347.234 177.52l22.334-22.335v-11.33l-6.923-6.922V98.797l-38.614-38.614"/>
                <path stroke="#C4CDD5" d="M340.069 60.31l32.35 32.35v39.178l9.207 9.207v16.52l-22.374 22.374"/>
                <path stroke="#C4CDD5" stroke-linecap="round" stroke-width="11" d="M366.904 67.536l16.685 16.685v45.048l43.292 43.29h27.768"/>
                <path stroke="#C4CDD5" d="M322.011 48.834l44.443 44.443v39.626l9.31 9.31v11.773l-34.129 34.13"/>
                <path fill="#C4CDD5" fill-rule="nonzero" d="M336 196a4 4 0 1 1 0-8c1.227 0 5.266-1.144 6-.274.587.696-2 3.292-2 4.274a4 4 0 0 1-4 4zm0-2a2 2 0 1 0 0-4 2 2 0 0 0 0 4zM340 182a4 4 0 1 1 3.253-6.328c.47.655 5.037.656 5.037 1.524 0 1.059-4.701 2.825-5.372 3.54A3.989 3.989 0 0 1 340 182zm0-2a2 2 0 1 0 0-4 2 2 0 0 0 0 4zM355 188a4 4 0 1 1 0-8c1.167 0 3.885-1.198 4.616-.4.654.711-.616 3.358-.616 4.4a4 4 0 0 1-4 4zm0-2a2 2 0 1 0 0-4 2 2 0 0 0 0 4z"/>
            </g>
            <g opacity=".592">
                <path stroke="#C4CDD5" d="M503.15 412.45v17.266l16.04 16.039v7.615l35.934 35.934v35.7l15.587 15.588h11.007l8.11 8.109"/>
                <path stroke="#C4CDD5" d="M511.905 420.603v10.739l14.363 14.363v6.636l34.63 34.629v35.95l12.122 12.123h35.512l26.347 26.347"/>
                <path stroke="#C4CDD5" d="M528.36 432.603l7.161-7.161h7.79l16.232 16.233v22.114l34.491 34.49v17.076H572.4v9.547h35.093l33.517 33.517v13.844"/>
                <path stroke="#C4CDD5" d="M533.402 395.965l-3.134 3.133 38.871 38.871v25.218l34.41 34.41v14.424l46.35 46.35v5.032"/>
                <path stroke="#C4CDD5" stroke-linecap="round" stroke-width="11" d="M598.354 404.308h22.373l21.918 21.918h9.618l22.363 22.364v42.091l16.063 16.063"/>
                <path stroke="#C4CDD5" d="M559.632 403.515h15.41l40.401 40.403v65.995l31.628 31.628"/>
                <path fill="#C4CDD5" fill-rule="nonzero" d="M503 413.794c-.871 0-1.677-2.073-2.334-2.545A3.995 3.995 0 0 1 499 408a3.982 3.982 0 0 1 1.104-2.76A3.982 3.982 0 0 1 503 404a4 4 0 0 1 2.155 7.37c-.622.399-1.361 2.424-2.155 2.424zm0-3.794a2 2 0 1 0 0-4 2 2 0 0 0 0 4zM512 421.498c-.668 0-1.299-2.662-1.852-2.952A4 4 0 0 1 512 411a4 4 0 0 1 1.784 7.581c-.537.268-1.143 2.917-1.784 2.917zm0-4.498a2 2 0 1 0 0-4 2 2 0 0 0 0 4zM526 440a4 4 0 1 1 0-8c1.04 0 2.617-.955 3.328-.304.414.378.118 2.193.344 2.715A4 4 0 0 1 526 440zm0-2a2 2 0 1 0 0-4 2 2 0 0 0 0 4zM537 448a4 4 0 1 1 0-8 4 4 0 0 1 0 8zm0-2a2 2 0 1 0 0-4 2 2 0 0 0 0 4zM546 459a4 4 0 1 1 0-8 4 4 0 0 1 0 8zm0-2a2 2 0 1 0 0-4 2 2 0 0 0 0 4zM573 509a4 4 0 1 1 0-8 4 4 0 0 1 0 8zm0-2a2 2 0 1 0 0-4 2 2 0 0 0 0 4zM586 509a4 4 0 1 1 0-8 4 4 0 0 1 0 8zm0-2a2 2 0 1 0 0-4 2 2 0 0 0 0 4zM550 447a4 4 0 1 1 0-8 4 4 0 0 1 0 8zm0-2a2 2 0 1 0 0-4 2 2 0 0 0 0 4zM537 396c-1.063 0-3.583 1.374-4.3.698-.771-.73.3-3.552.3-4.698a3.982 3.982 0 0 1 1.104-2.76A3.982 3.982 0 0 1 537 388a4 4 0 1 1 0 8zm0-2a2 2 0 1 0 0-4 2 2 0 0 0 0 4zM554 408a4 4 0 1 1 3.407-6.096c.376.61 3.09.846 3.09 1.615 0 .726-2.69 1.89-3.03 2.477A3.998 3.998 0 0 1 554 408zm0-2a2 2 0 1 0 0-4 2 2 0 0 0 0 4z"/>
            </g>
            <g opacity=".592">
                <path stroke="#C4CDD5" stroke-linecap="round" stroke-width="11" d="M532.33 292.436l12.684-12.684h6.625l36.637-36.637h92.495l18.729-18.729h36.784"/>
                <path stroke="#C4CDD5" d="M552.992 290.594l34.262-34.262h97.458l17.086-17.086h25.13"/>
                <path stroke="#C4CDD5" d="M552.636 336.951v-22.433l13.679-13.68v-11.784l22.89-22.89H694.58l11.69 11.69h19.69"/>
                <path fill="#C4CDD5" fill-rule="nonzero" d="M553 349a4 4 0 0 1-1.905-7.518c.567-.307.523-5.432 1.213-5.432.716 0 2.08 5.138 2.661 5.468A4 4 0 0 1 553 349zm0-2a2 2 0 1 0 0-4 2 2 0 0 0 0 4zM546 300a4 4 0 1 1 0-8c1.259 0 6.837-2.542 7.57-1.633.554.686-3.57 4.683-3.57 5.633a4 4 0 0 1-4 4zm0-2a2 2 0 1 0 0-4 2 2 0 0 0 0 4z"/>
            </g>
            <g opacity=".592">
                <path stroke="#C4CDD5" stroke-linecap="round" stroke-width="11" d="M411.459 429.897h-42.892l-16.66 16.659v53.883l-25.663 25.664v26.038l9.07 9.07"/>
                <path stroke="#C4CDD5" d="M415.816 477.758h-35.512l-12.444 12.444v12.034l-24.45 24.451V593.2"/>
                <path stroke="#C4CDD5" d="M415.333 488.3h-32.71l-5.589 5.588v14.864l-25.829 25.829v61.015"/>
                <path fill="#C4CDD5" fill-rule="nonzero" d="M423 482a4 4 0 0 1-3.57-2.194c-.275-.543-4.595-1.456-4.595-2.106 0-.717 4.354-1.09 4.684-1.672a4.014 4.014 0 0 1 1.576-1.546A4 4 0 1 1 423 482zm0-2a2 2 0 1 0 0-4 2 2 0 0 0 0 4zM373 449a4 4 0 1 1 0-8 4 4 0 0 1 0 8zm0-2a2 2 0 1 0 0-4 2 2 0 0 0 0 4zM382 457a4 4 0 1 1 0-8 4 4 0 0 1 0 8zm0-2a2 2 0 1 0 0-4 2 2 0 0 0 0 4zM390 465a4 4 0 1 1 0-8 4 4 0 0 1 0 8zm0-2a2 2 0 1 0 0-4 2 2 0 0 0 0 4zM376 469a4 4 0 1 1 0-8 4 4 0 0 1 0 8zm0-2a2 2 0 1 0 0-4 2 2 0 0 0 0 4zM367 461a4 4 0 1 1 0-8 4 4 0 0 1 0 8zm0-2a2 2 0 1 0 0-4 2 2 0 0 0 0 4zM365 473a4 4 0 1 1 0-8 4 4 0 0 1 0 8zm0-2a2 2 0 1 0 0-4 2 2 0 0 0 0 4zM423 492a3.998 3.998 0 0 1-3.415-1.915c-.371-.608-4.702-1.011-4.702-1.775 0-.717 4.306-1.7 4.636-2.282a4.014 4.014 0 0 1 1.576-1.546A4 4 0 1 1 423 492zm0-2a2 2 0 1 0 0-4 2 2 0 0 0 0 4z"/>
            </g>
            <g opacity=".592">
                <path stroke="#C4CDD5" d="M9.7 280.918h65.274l22.61 22.61h63.636l4.65-4.65h44.609l6.92-6.92v-6.941l6.83-6.83h10.574l11.343 11.343h24.298l14.121-14.122h13.58l4.798 4.799h6.363"/>
                <path stroke="#C4CDD5" d="M17.504 286.215h55.748l23.595 23.595h66.314l4.625-4.626h45.179L223.7 294.45"/>
                <path stroke="#C4CDD5" d="M18.332 295.85h50.437l22.346 22.346h75.147l4.002-4.002h52.667"/>
                <path stroke="#C4CDD5" d="M28.298 304.842h35.964l21.727 21.727h84.623l3.615-3.616h26.959l3.38 3.38M2.32 350.92h44.066l4.505 4.505h77.76l39.1 39.1h61.25l18.787-18.787v-6.191l24.568-24.569h34.592l13.77-13.77"/>
                <path stroke="#C4CDD5" d="M88.076 351.131h42.835l38.907 38.907h51.441l50.6-50.6h16.487"/>
                <path stroke="#C4CDD5" d="M60.066 320.683L75.9 336.515h77.787l21.642 21.642M275.594 302.623l-5.495 5.496h-27.043l-4.962 4.962v11.882l-5.808 5.808v12.333l-18.058 18.058M10.581 290.789h60.066l23.14 23.139h70.623l4.664-4.664h51.871l14.818-14.818h37.686l13.365-13.364h10.465l4.5 4.5"/>
                <path stroke="#C4CDD5" d="M9.96 300.342h57.036l21.93 21.93h80.869l3.765-3.765h38.641l9.144 9.144"/>
                <path stroke="#C4CDD5" d="M8.535 310.073h54.13l22.003 22.003h70.76l22.218 22.217h8.72l8.042 8.041v4.712l4.783 4.783h12.47l23.67-23.67v-11.185l24.129-24.128h12.128l5.725 5.724h18.248l4.677-4.676h9.394l4.237-4.237v-8.793l6.37-6.37"/>
                <path stroke="#C4CDD5" d="M37.684 334.506H53.94l11.852 11.852h69.24l11.163 11.164h7.115M152.569 365.47l19.138 19.138h46.672l49.724-49.724h11.582l8.209-8.209h9.904l5.297 5.297h8.018l3.374-3.373v-9.495"/>
                <path stroke="#C4CDD5" d="M184.12 374.742h33.383l22.83-22.829v-14.047l9.322-9.322h12.197l3.355 3.354h11.933l8.73-8.73h12.608"/>
                <path fill="#C4CDD5" fill-rule="nonzero" d="M160 361c-1.2 0-6.84-2.735-7.573-3.571-.616-.704 2.41-.156 3.573-.429a4 4 0 1 1 4 4zm0-2a2 2 0 1 0 0-4 2 2 0 0 0 0 4zM209 335a4 4 0 0 1-3.48-5.972c.162-.287-2.206-3.556-1.98-3.793.287-.302 3.186 2.447 3.555 2.247A4 4 0 1 1 209 335zm0-2a2 2 0 1 0 0-4 2 2 0 0 0 0 4zM224 337a4 4 0 0 1-3.48-5.972c.162-.287-1.488-5.197-1.263-5.433.288-.302.042.2.411 0 .567-.308 3.642 3.405 4.332 3.405a4 4 0 1 1 0 8zm0-2a2 2 0 1 0 0-4 2 2 0 0 0 0 4zM230 319a3.995 3.995 0 0 1-3.242-1.656c-.477-.659-5.762-2.397-5.762-3.273 0-.717 5.193-.461 5.523-1.043a4.014 4.014 0 0 1 1.576-1.546A4 4 0 1 1 230 319zm0-2a2 2 0 1 0 0-4 2 2 0 0 0 0 4zM228 293c-1.067 0-4.868 3.383-5.585 2.702-.769-.729 1.585-5.56 1.585-6.702a3.982 3.982 0 0 1 1.104-2.76A3.982 3.982 0 0 1 228 285a4 4 0 1 1 0 8zm0-2a2 2 0 1 0 0-4 2 2 0 0 0 0 4zM280 302c-.422 0-.829-.065-1.211-.187-.545-.173-3.475 1.756-3.891 1.384-.434-.389 1.652-3.086 1.42-3.63A3.987 3.987 0 0 1 276 298a3.982 3.982 0 0 1 1.104-2.76A3.982 3.982 0 0 1 280 294a4 4 0 1 1 0 8zm0-2a2 2 0 1 0 0-4 2 2 0 0 0 0 4zM306 294a4 4 0 0 1-3.48-5.972c.162-.287-2.202-3.446-1.977-3.683.288-.301 3.183 2.337 3.552 2.137A4 4 0 1 1 306 294zm0-2a2 2 0 1 0 0-4 2 2 0 0 0 0 4zM325 294c-1.096 0-4.257 1.763-4.98 1.05-.733-.726.98-3.936.98-5.05a3.982 3.982 0 0 1 1.104-2.76A3.982 3.982 0 0 1 325 286a4 4 0 1 1 0 8zm0-2a2 2 0 1 0 0-4 2 2 0 0 0 0 4zM305 327a3.99 3.99 0 0 1-3.009-1.364c-.617-.704-4.563-1.626-4.563-2.636 0-.717 3.76-1.39 4.091-1.972a4.014 4.014 0 0 1 1.576-1.546A4 4 0 1 1 305 327zm0-2a2 2 0 1 0 0-4 2 2 0 0 0 0 4zM294 343c-1.43 0-2.683-.75-3.39-1.877-.387-.615-3.274-.85-3.274-1.63 0-.716 2.853-1.883 3.183-2.465a4.014 4.014 0 0 1 1.576-1.546A4 4 0 1 1 294 343zm0-2a2 2 0 1 0 0-4 2 2 0 0 0 0 4zM319 318c-.56 0-1.093-.115-1.577-.323-.55-.236-2.532 2.967-2.922 2.524-.62-.705.499-5.189.499-6.201a3.982 3.982 0 0 1 1.104-2.76A3.982 3.982 0 0 1 319 310a4 4 0 1 1 0 8zm0-2a2 2 0 1 0 0-4 2 2 0 0 0 0 4zM182 339a4 4 0 1 1 0-8 4 4 0 0 1 0 8zm0-2a2 2 0 1 0 0-4 2 2 0 0 0 0 4zM197 349a4 4 0 1 1 0-8 4 4 0 0 1 0 8zm0-2a2 2 0 1 0 0-4 2 2 0 0 0 0 4zM193 338a4 4 0 1 1 0-8 4 4 0 0 1 0 8zm0-2a2 2 0 1 0 0-4 2 2 0 0 0 0 4zM318 284c-1.3 0-2.455-.62-3.186-1.581-.51-.672-6.047-1.243-6.047-2.152 0-.717 5.422-1.657 5.752-2.24a4.014 4.014 0 0 1 1.576-1.545A4 4 0 1 1 318 284zm0-2a2 2 0 1 0 0-4 2 2 0 0 0 0 4zM210 369a4 4 0 1 1 0-8c1.207 0 4.182-1.195 4.916-.35.609.702-.916 3.348-.916 4.35a4 4 0 0 1-4 4zm0-2a2 2 0 1 0 0-4 2 2 0 0 0 0 4zM180 367a4 4 0 0 1-3.48-5.972c.162-.287-2.594-3.961-2.369-4.198.288-.302 3.575 2.852 3.944 2.652A4 4 0 1 1 180 367zm0-2a2 2 0 1 0 0-4 2 2 0 0 0 0 4zM32 339a4 4 0 1 1 3.381-6.138c.185.291 4.58 1.551 4.684 1.887.118.377-4.065-.165-4.065.251a4 4 0 0 1-4 4zm0-2a2 2 0 1 0 0-4 2 2 0 0 0 0 4zM55 321a4 4 0 1 1 3.91-3.156c-.12.561 2.876 3.646 2.546 4.093-.398.54-4.162-1.59-4.778-1.305A3.985 3.985 0 0 1 55 321zm0-2a2 2 0 1 0 0-4 2 2 0 0 0 0 4zM175 379a4 4 0 1 1 3.199-6.402c.503.669 6.673 1.233 6.673 2.134 0 .7-6.052 1.625-6.367 2.197A3.999 3.999 0 0 1 175 379zm0-2a2 2 0 1 0 0-4 2 2 0 0 0 0 4z"/>
            </g>
            <g opacity=".592" transform="translate(334 225)">
                <mask id="d" fill="#fff">
                    <use xlink:href="#c"/>
                </mask>
                <path fill="#B3BCF5" d="M0 20h9v2H0zM0 25h9v2H0zM0 30h9v2H0zM0 35h9v2H0zM0 40h9v2H0zM0 45h9v2H0zM0 50h9v2H0zM0 55h9v2H0zM0 60h9v2H0zM0 65h9v2H0zM0 70h9v2H0zM0 75h9v2H0zM0 80h9v2H0zM0 85h9v2H0zM0 90h9v2H0zM0 95h9v2H0zM0 100h9v2H0zM0 105h9v2H0zM0 110h9v2H0zM0 115h9v2H0zM0 120h9v2H0zM0 125h9v2H0zM0 130h9v2H0zM0 135h9v2H0z" mask="url(#d)"/>
            </g>
            <g opacity=".592" transform="rotate(90 141.5 357.5)">
                <mask id="f" fill="#fff">
                    <use xlink:href="#e"/>
                </mask>
                <path fill="#B3BCF5" d="M0 20h9v2H0zM0 25h9v2H0zM0 30h9v2H0zM0 35h9v2H0zM0 40h9v2H0zM0 45h9v2H0zM0 50h9v2H0zM0 55h9v2H0zM0 60h9v2H0zM0 65h9v2H0zM0 70h9v2H0zM0 75h9v2H0zM0 80h9v2H0zM0 85h9v2H0zM0 90h9v2H0zM0 95h9v2H0zM0 100h9v2H0zM0 105h9v2H0zM0 110h9v2H0zM0 115h9v2H0zM0 120h9v2H0zM0 125h9v2H0zM0 130h9v2H0zM0 135h9v2H0z" mask="url(#f)"/>
            </g>
            <g opacity=".592" transform="rotate(90 59.5 439.5)">
                <mask id="h" fill="#fff">
                    <use xlink:href="#g"/>
                </mask>
                <path fill="#B3BCF5" d="M0 20h9v2H0zM0 25h9v2H0zM0 30h9v2H0zM0 35h9v2H0zM0 40h9v2H0zM0 45h9v2H0zM0 50h9v2H0zM0 55h9v2H0zM0 60h9v2H0zM0 65h9v2H0zM0 70h9v2H0zM0 75h9v2H0zM0 80h9v2H0zM0 85h9v2H0zM0 90h9v2H0zM0 95h9v2H0zM0 100h9v2H0zM0 105h9v2H0zM0 110h9v2H0zM0 115h9v2H0zM0 120h9v2H0zM0 125h9v2H0zM0 130h9v2H0zM0 135h9v2H0z" mask="url(#h)"/>
            </g>
            <g opacity=".592" transform="translate(499 225)">
                <mask id="j" fill="#fff">
                    <use xlink:href="#i"/>
                </mask>
                <path fill="#B3BCF5" d="M0 20h9v2H0zM0 25h9v2H0zM0 30h9v2H0zM0 35h9v2H0zM0 40h9v2H0zM0 45h9v2H0zM0 50h9v2H0zM0 55h9v2H0zM0 60h9v2H0zM0 65h9v2H0zM0 70h9v2H0zM0 75h9v2H0zM0 80h9v2H0zM0 85h9v2H0zM0 90h9v2H0zM0 95h9v2H0zM0 100h9v2H0zM0 105h9v2H0zM0 110h9v2H0zM0 115h9v2H0zM0 120h9v2H0zM0 125h9v2H0zM0 130h9v2H0zM0 135h9v2H0z" mask="url(#j)"/>
            </g>
            <path fill="#C4CDD5" d="M355.978 225h130.158L499 238.579v128.739L485.705 380H356.15L343 367.73V238.003L355.978 225zm13.42 15L359 250.402v103.782L369.536 364h103.811L484 353.854V250.863L473.692 240H369.399zM362 251.691l8.689-8.691h101.668l8.643 9.107v100.417L472.099 361H370.766L362 352.834V251.69z" opacity=".592"/>
            <path fill="#C4CDD5" d="M439 280.05V279h-33.94l-1.06 7.35h1.06c.617-3.053 3.325-5.25 6.47-5.25h19.32L404 319.95V321h32.879l2.121-8.4h-1.06c-1.256 4.35-5.273 6.3-9.843 6.3h-17.008L439 280.05z" opacity=".623"/>
        </g>
    </g>
</svg>
