<svg xmlns="http://www.w3.org/2000/svg" width="822" height="600" viewBox="0 0 822 600">
    <g fill="none" fill-rule="evenodd">
        <path d="M0 0h822v600H0z"/>
        <g opacity=".7">
            <path stroke="#C4CDD5" stroke-dasharray="6" d="M337 93.439V551M550 97.5v446M63 495h716.5M51 370h724.53M51 230h727.59"/>
            <path stroke="#B3BCF5" stroke-width="2" d="M82 432.175l123.697-74.123a18 18 0 0 1 15.09-1.588l67.43 23.116a18 18 0 0 0 19.14-4.9l58.395-64.056a18 18 0 0 1 22.428-3.388l65.469 38.51c7.786 4.581 17.762 2.68 23.319-4.443l70.427-90.285a18 18 0 0 1 8.8-6.102L756.549 182M82 479.175l131.444-42.792a18 18 0 0 1 7.05-.824l71.46 5.889a18 18 0 0 0 10.721-2.493l72.757-43.537a18 18 0 0 1 10.972-2.471l74.62 7.203a18 18 0 0 0 11.493-2.794l85.463-55.175a18 18 0 0 1 10.799-2.848l175.757 10.132"/>
        </g>
    </g>
</svg>
