<svg xmlns="http://www.w3.org/2000/svg" xmlns:xlink="http://www.w3.org/1999/xlink" width="832" height="590" viewBox="0 0 832 590">
    <defs>
        <rect id="b" width="126.275" height="126.26" x="199.444" y="276.12" rx="6"/>
        <filter id="a" width="133.3%" height="133.3%" x="-16.6%" y="-16.6%" filterUnits="objectBoundingBox">
            <feOffset in="SourceAlpha" result="shadowOffsetOuter1"/>
            <feGaussianBlur in="shadowOffsetOuter1" result="shadowBlurOuter1" stdDeviation="7"/>
            <feColorMatrix in="shadowBlurOuter1" values="0 0 0 0 0.121568627 0 0 0 0 0.145098039 0 0 0 0 0.278431373 0 0 0 0.1 0"/>
        </filter>
        <rect id="d" width="81.43" height="81.42" x="416.59" y="429.52" rx="6"/>
        <filter id="c" width="151.6%" height="151.6%" x="-25.8%" y="-25.8%" filterUnits="objectBoundingBox">
            <feOffset in="SourceAlpha" result="shadowOffsetOuter1"/>
            <feGaussianBlur in="shadowOffsetOuter1" result="shadowBlurOuter1" stdDeviation="7"/>
            <feColorMatrix in="shadowBlurOuter1" values="0 0 0 0 0.121568627 0 0 0 0 0.145098039 0 0 0 0 0.278431373 0 0 0 0.1 0"/>
        </filter>
        <rect id="f" width="53.106" height="53.1" x="18.882" y="36.58" rx="6"/>
        <filter id="e" width="179.1%" height="179.1%" x="-39.5%" y="-39.5%" filterUnits="objectBoundingBox">
            <feOffset in="SourceAlpha" result="shadowOffsetOuter1"/>
            <feGaussianBlur in="shadowOffsetOuter1" result="shadowBlurOuter1" stdDeviation="7"/>
            <feColorMatrix in="shadowBlurOuter1" values="0 0 0 0 0.121568627 0 0 0 0 0.145098039 0 0 0 0 0.278431373 0 0 0 0.1 0"/>
        </filter>
        <rect id="h" width="89.691" height="89.68" rx="10"/>
        <filter id="g" width="146.8%" height="146.8%" x="-23.4%" y="-23.4%" filterUnits="objectBoundingBox">
            <feOffset in="SourceAlpha" result="shadowOffsetOuter1"/>
            <feGaussianBlur in="shadowOffsetOuter1" result="shadowBlurOuter1" stdDeviation="7"/>
            <feColorMatrix in="shadowBlurOuter1" values="0 0 0 0 0.121568627 0 0 0 0 0.145098039 0 0 0 0 0.278431373 0 0 0 0.1 0"/>
        </filter>
        <path id="i" d="M34.208 6.917C34.2 6.552 28.512 4.247 17.144 0 5.767 4.247.058 6.552.017 6.917c-.241 10.382 2.03 18.876 6.791 25.481 2.593 3.597 5.84 6.517 9.76 8.74.304.224.778.207 1.131 0 3.89-2.261 7.132-5.16 9.72-8.74 4.768-6.6 7.02-15.099 6.789-25.481z"/>
        <rect id="l" width="62.548" height="62.54" x="457.895" y="245.44" rx="6"/>
        <filter id="k" width="167.1%" height="167.2%" x="-33.6%" y="-33.6%" filterUnits="objectBoundingBox">
            <feOffset in="SourceAlpha" result="shadowOffsetOuter1"/>
            <feGaussianBlur in="shadowOffsetOuter1" result="shadowBlurOuter1" stdDeviation="7"/>
            <feColorMatrix in="shadowBlurOuter1" values="0 0 0 0 0.121568627 0 0 0 0 0.145098039 0 0 0 0 0.278431373 0 0 0 0.1 0"/>
        </filter>
        <path id="m" d="M10 0h190.065c5.523 0 10 4.477 10 10v190.04c0 5.523-4.477 10-10 10H10c-5.523 0-10-4.477-10-10V10C0 4.477 4.477 0 10 0zm234.848 182.9h115.717c5.522 0 10 4.477 10 10v115.7c0 5.523-4.478 10-10 10H244.848c-5.523 0-10-4.477-10-10V192.9c0-5.523 4.477-10 10-10zm49.566-171.1h83.853c5.523 0 10 4.477 10 10v83.84c0 5.523-4.477 10-10 10h-83.853c-5.523 0-10-4.477-10-10V21.8c0-5.523 4.477-10 10-10z"/>
        <filter id="n" width="110.8%" height="113.2%" x="-5.4%" y="-6.6%" filterUnits="objectBoundingBox">
            <feOffset in="SourceAlpha" result="shadowOffsetOuter1"/>
            <feGaussianBlur in="shadowOffsetOuter1" result="shadowBlurOuter1" stdDeviation="7"/>
            <feColorMatrix in="shadowBlurOuter1" values="0 0 0 0 0.121568627 0 0 0 0 0.145098039 0 0 0 0 0.278431373 0 0 0 0.1 0"/>
        </filter>
        <rect id="q" width="48.386" height="48.38" x="16.522" y="31.86" rx="6"/>
        <filter id="p" width="186.8%" height="186.8%" x="-43.4%" y="-43.4%" filterUnits="objectBoundingBox">
            <feOffset in="SourceAlpha" result="shadowOffsetOuter1"/>
            <feGaussianBlur in="shadowOffsetOuter1" result="shadowBlurOuter1" stdDeviation="7"/>
            <feColorMatrix in="shadowBlurOuter1" values="0 0 0 0 0.121568627 0 0 0 0 0.145098039 0 0 0 0 0.278431373 0 0 0 0.1 0"/>
        </filter>
        <rect id="s" width="80.25" height="80.24" rx="10"/>
        <filter id="r" width="152.3%" height="152.3%" x="-26.2%" y="-26.2%" filterUnits="objectBoundingBox">
            <feOffset in="SourceAlpha" result="shadowOffsetOuter1"/>
            <feGaussianBlur in="shadowOffsetOuter1" result="shadowBlurOuter1" stdDeviation="7"/>
            <feColorMatrix in="shadowBlurOuter1" values="0 0 0 0 0.121568627 0 0 0 0 0.145098039 0 0 0 0 0.278431373 0 0 0 0.1 0"/>
        </filter>
        <rect id="u" width="38.945" height="38.94" x="12.982" y="25.96" rx="6"/>
        <filter id="t" width="207.8%" height="207.9%" x="-53.9%" y="-53.9%" filterUnits="objectBoundingBox">
            <feOffset in="SourceAlpha" result="shadowOffsetOuter1"/>
            <feGaussianBlur in="shadowOffsetOuter1" result="shadowBlurOuter1" stdDeviation="7"/>
            <feColorMatrix in="shadowBlurOuter1" values="0 0 0 0 0.121568627 0 0 0 0 0.145098039 0 0 0 0 0.278431373 0 0 0 0.1 0"/>
        </filter>
        <rect id="w" width="64.908" height="64.9" rx="10"/>
        <filter id="v" width="164.7%" height="164.7%" x="-32.4%" y="-32.4%" filterUnits="objectBoundingBox">
            <feOffset in="SourceAlpha" result="shadowOffsetOuter1"/>
            <feGaussianBlur in="shadowOffsetOuter1" result="shadowBlurOuter1" stdDeviation="7"/>
            <feColorMatrix in="shadowBlurOuter1" values="0 0 0 0 0.121568627 0 0 0 0 0.145098039 0 0 0 0 0.278431373 0 0 0 0.1 0"/>
        </filter>
        <rect id="y" width="51.926" height="51.92" x="17.702" y="34.22" rx="6"/>
        <filter id="x" width="180.9%" height="180.9%" x="-40.4%" y="-40.4%" filterUnits="objectBoundingBox">
            <feOffset in="SourceAlpha" result="shadowOffsetOuter1"/>
            <feGaussianBlur in="shadowOffsetOuter1" result="shadowBlurOuter1" stdDeviation="7"/>
            <feColorMatrix in="shadowBlurOuter1" values="0 0 0 0 0.121568627 0 0 0 0 0.145098039 0 0 0 0 0.278431373 0 0 0 0.1 0"/>
        </filter>
        <rect id="A" width="86.15" height="86.14" rx="10"/>
        <filter id="z" width="148.8%" height="148.8%" x="-24.4%" y="-24.4%" filterUnits="objectBoundingBox">
            <feOffset in="SourceAlpha" result="shadowOffsetOuter1"/>
            <feGaussianBlur in="shadowOffsetOuter1" result="shadowBlurOuter1" stdDeviation="7"/>
            <feColorMatrix in="shadowBlurOuter1" values="0 0 0 0 0.121568627 0 0 0 0 0.145098039 0 0 0 0 0.278431373 0 0 0 0.1 0"/>
        </filter>
        <rect id="B" width="34.224" height="22.42" rx="3"/>
        <filter id="C" width="222.7%" height="287.3%" x="-61.4%" y="-93.7%" filterUnits="objectBoundingBox">
            <feOffset in="SourceAlpha" result="shadowOffsetOuter1"/>
            <feGaussianBlur in="shadowOffsetOuter1" result="shadowBlurOuter1" stdDeviation="7"/>
            <feColorMatrix in="shadowBlurOuter1" values="0 0 0 0 0.121568627 0 0 0 0 0.145098039 0 0 0 0 0.278431373 0 0 0 0.1 0"/>
        </filter>
        <path id="E" d="M14.126 7.08h13.017V3.54H11.801z"/>
    </defs>
    <g fill="none" fill-rule="evenodd">
        <path d="M0 0h832v590H0z"/>
        <g>
            <use fill="#000" filter="url(#a)" xlink:href="#b"/>
            <use fill="#FFF" xlink:href="#b"/>
        </g>
        <g>
            <use fill="#000" filter="url(#c)" xlink:href="#d"/>
            <use fill="#FFF" xlink:href="#d"/>
        </g>
        <g transform="translate(591.251 152.22)">
            <use fill="#000" filter="url(#e)" xlink:href="#f"/>
            <use fill="#FFF" xlink:href="#f"/>
        </g>
        <g transform="translate(591.251 152.22)">
            <use fill="#000" filter="url(#g)" xlink:href="#h"/>
            <use fill="#FFF" xlink:href="#h"/>
        </g>
        <g transform="translate(619.574 178.18)">
            <mask id="j" fill="#fff">
                <use xlink:href="#i"/>
            </mask>
            <use fill="#007ACE" xlink:href="#i"/>
            <path fill="#202E78" d="M-2.738-6.195h19.85v49.56h-19.85z" mask="url(#j)" opacity=".06"/>
        </g>
        <g>
            <use fill="#000" filter="url(#k)" xlink:href="#l"/>
            <use fill="#FFF" xlink:href="#l"/>
        </g>
        <g transform="translate(156.959 192.34)">
            <mask id="o" fill="#fff">
                <use xlink:href="#m"/>
            </mask>
            <use fill="#000" filter="url(#n)" xlink:href="#m"/>
            <use fill="#FFF" xlink:href="#m"/>
            <path fill="#5C6AC4" d="M351.47 170.688a4.812 4.812 0 0 0-2.657-4.305l.196-.348.002-.24c0-.12-.002-.24-.004-.359a16.475 16.475 0 0 1-.004-.348v-.935l-1.083 1.908a4.968 4.968 0 0 0-.765-.146v-60.18c.151-.013.297-.031.438-.055l12.542 79.18a5.559 5.559 0 0 0-1.614.698l-8.595-11.368a4.79 4.79 0 0 0 1.543-3.502zm-27.623 77.452a4.832 4.832 0 0 0-2.505-4.207l13.736-26.08-12.856 45.687a5.233 5.233 0 0 0-1.02-.102l-.08.003-1.102-10.603a4.783 4.783 0 0 0 3.827-4.698zm-49.937 39.31a4.772 4.772 0 0 0 3.568 1.612 4.82 4.82 0 0 0 4.815-4.817c0-.854-.23-1.687-.664-2.423l5.26-3.857.042.045a5.007 5.007 0 0 0 3.566 1.479h.002a4.998 4.998 0 0 0 3.562-1.479 4.976 4.976 0 0 0 1.446-3.939l20.467-3.159c.134.364.305.712.512 1.041L245.4 308.168l28.509-20.717zm-54.346 10.467l35.184-11.43 17.976-1.61c.084.64.286 1.245.59 1.778l-28.59 20.775a5.488 5.488 0 0 0-3.809-1.522 5.54 5.54 0 0 0-4.773 2.744l-16.751-7.97c.31-.88.37-1.846.173-2.765zm-63.18-1.124l29.987-3.718a3.765 3.765 0 0 0 1.985 2.165l.447.105c.367.081.734.163 1.103.237l.05.004a3.714 3.714 0 0 0 3.048-1.617l16.826 6.329c.23.883.652 1.637 1.258 2.244a5.02 5.02 0 0 0 6.351.622l18.132 6.83a5.68 5.68 0 0 0-.074.263l-79.27-12.551a5.78 5.78 0 0 0 .157-.913zm-16.398-18.344a4.937 4.937 0 0 0 1.168-1.897l7.465 2.418c.362.188.746.314 1.103.366l36.5 11.854a3.02 3.02 0 0 0-.058.91l-29.802 3.693c-.295-2.816-2.668-4.984-5.514-4.984a5.466 5.466 0 0 0-3.011.911l-8.294-12.896c.153-.116.302-.236.443-.375zm-49.423-43.957l22.852 16.42a4.776 4.776 0 0 0-.357 1.798 4.821 4.821 0 0 0 4.818 4.814 4.813 4.813 0 0 0 3.803-1.869l11.3 15.551-.126.111a5.016 5.016 0 0 0-1.478 3.568c0 1.346.525 2.612 1.478 3.564a5.054 5.054 0 0 0 5.853.907l8.348 12.986c-.1.093-.192.182-.275.27L89.597 235.44c.357-.274.68-.591.966-.948zm-1.926-21.588c.596 0 1.192-.106 1.747-.31l25.87 35.598a4.764 4.764 0 0 0-2.361 1.84l-22.779-16.368a5.547 5.547 0 0 0 .684-2.654 5.543 5.543 0 0 0-4.42-5.433l1.26-12.673zm-2.38-83.734c.378.256.795.461 1.245.613v24.628l-9.922-7.324c.538-.881.821-1.871.821-2.879 0-1.468-.571-2.84-1.613-3.886l9.47-11.152zm120.845-91.587l-52.463 17.04a4.825 4.825 0 0 0-4.262-2.604 4.821 4.821 0 0 0-4.76 5.537l-5.07 1.649a5.011 5.011 0 0 0-4.632-3.068 5.01 5.01 0 0 0-3.568 1.478 4.987 4.987 0 0 0-1.44 3.956l-12.25 2.2a5.51 5.51 0 0 0-.627-1.467l69.95-35.639a5.578 5.578 0 0 0 4.394 2.166c1.902 0 3.67-.996 4.677-2.617l10.662 7.858a5.07 5.07 0 0 0-.61 3.51zm70.13-.52l-13.165 1.264a4.772 4.772 0 0 0-4.415-2.929 4.822 4.822 0 0 0-4.818 4.817c0 .122.012.239.027.355l-16.505 3.178-21.3-6.922a5.014 5.014 0 0 0-1.452-3.754 5.051 5.051 0 0 0-7.131.002 4.532 4.532 0 0 0-.175.192l-10.79-7.95a5.56 5.56 0 0 0 .364-1.356l79.398 12.576c-.02.157-.038.319-.038.489v.037zm2.525 10.016a2.347 2.347 0 0 0-1.48.58l-1.796-1.363 1.462 1.72-.01.013-13.727-6.278c.173-.504.26-1.02.26-1.536 0-.294-.034-.596-.103-.918l12.983-1.249a5.537 5.537 0 0 0 3.331 4.105l-.92 4.926zm31.175 25.133l-16.778-12.615a4.958 4.958 0 0 0-1.406-2.889 5.05 5.05 0 0 0-4.312-1.412l-6.478-4.87c.148-.317.223-.649.223-.988 0-.956-.575-1.801-1.452-2.167l.902-4.822c.427.097.803.143 1.166.143a5.47 5.47 0 0 0 3.167-1.012l25.397 30.304a2.602 2.602 0 0 0-.429.328zm30.08 23.032l-25.93-19.882a2.645 2.645 0 0 0-2.73-3.84l-25.524-30.46 54.184 54.182zm-1.781 26.527a5.015 5.015 0 0 0-1.437-.124l-5.753-19.874a4.647 4.647 0 0 0 2.896-4.29 4.654 4.654 0 0 0-7.046-3.994L315.458 76.9l26.519 20.34a5.46 5.46 0 0 0-.887 2.961c0 2.22 1.36 4.247 3.409 5.114l-5.268 16.456zm16.66 68.495c0 1.205.404 2.382 1.143 3.344l-14.537 10.98a4.89 4.89 0 0 0-.46-.537 4.94 4.94 0 0 0-2.515-1.335l6.074-27.354c.387.093.729.138 1.062.138.88 0 1.736-.24 2.492-.697l8.574 11.342a5.542 5.542 0 0 0-1.833 4.12zm-19.786 27.609c.127.018.262.033.402.033.736 0 1.463-.235 2.103-.677l.059-.04.028-.067c.45-1.067.916-2.23 1.466-3.662l.026-.068-.015-.07a3.464 3.464 0 0 0-.32-.877 4.948 4.948 0 0 0 2.184-1.265 4.999 4.999 0 0 0 .962-5.729l14.705-11.105c.227.208.465.394.713.557l-35.134 68.948-.105-.042 12.926-45.936zm-21.68 28.904l-2.79-.522 21.786-29.983c.255.367.57.687.933.942l-13.878 26.346a4.702 4.702 0 0 0-1.443-.239 4.794 4.794 0 0 0-4.608 3.456zm-55.68 38.406l27.11-8.806c.117.281.26.55.424.804l-5.249 3.845a4.785 4.785 0 0 0-3.552-1.596c-2.53 0-4.638 2-4.799 4.505l-13.935 1.248zm-47.656 10.227a4.977 4.977 0 0 0-1.332 2.381l-16.151-5.245a3.59 3.59 0 0 0 .08-.591l56.623-5.076-31.037 10.087a4.91 4.91 0 0 0-1.054-1.555 5.004 5.004 0 0 0-3.564-1.478 5.005 5.005 0 0 0-3.565 1.477zM88.499 156.377l9.89 7.3a4.775 4.775 0 0 0-.667 2.44 4.78 4.78 0 0 0 2.833 4.38l-10.804 32.49a5.173 5.173 0 0 0-1.153-.136l-.099.001v-46.475zM215.603 40.205c.063-.061.12-.126.174-.19l7.46 5.5c-.085.319-.127.62-.127.918 0 .582.14 1.146.416 1.68L188.64 63.504l-.284-.065a4.761 4.761 0 0 0-4.074-2.283c-.928 0-1.825.263-2.6.762l-26.603-6.065a5.01 5.01 0 0 0-.082-.302l52.385-17.02a4.977 4.977 0 0 0 1.092 1.672 5.05 5.05 0 0 0 7.128 0zm70.662 15.988l-3.104-3.622 4.084 3.071a4.982 4.982 0 0 0-.98.551zm59.896 109.638l-5.483-31.946a3.751 3.751 0 0 0 2.677-3.603c0-.244-.027-.493-.079-.742l-.017-.078-.694-.626a5.007 5.007 0 0 0-.957-5.737 4.939 4.939 0 0 0-1.44-.99l5.277-16.498c.237.052.476.09.716.113v60.107zm-7.183.4v-32.234c.273.05.534.071.778.048l5.502 32.048a4.826 4.826 0 0 0-2.448 1.7l-3.832-1.562zm0 1.015l3.354 1.364a4.684 4.684 0 0 0-.492 2.078 4.78 4.78 0 0 0 2.858 4.388l-5.72 25.767v-33.597zm-216.75 87.478a4.775 4.775 0 0 0 .462-2.014 4.783 4.783 0 0 0-2.862-4.393l2.043-7.376c.455.137.89.203 1.323.203a4.788 4.788 0 0 0 4.79-4.43l27.984-.204a3.734 3.734 0 0 0 1.949 1.526l-6.966 33.868a3.427 3.427 0 0 0-.624-.059c-1.654 0-3.136 1.12-3.607 2.74l-.11.501c-.026.167-.052.34-.052.53 0 .298.045.603.149.999l.144.454c.047.115.103.23.163.34l-5.607-1.82a5.059 5.059 0 0 0-1.421-4.272 5.04 5.04 0 0 0-6.22-.71l-11.537-15.883zM325.894 95.996l-9.081.427-11.976-16.485 5.995-3.97a2.608 2.608 0 0 0 3.09.538l13.2 17.588a4.618 4.618 0 0 0-1.228 1.902zm10.012 65.554a4.822 4.822 0 0 0-4.817-4.816 4.78 4.78 0 0 0-4.78 4.338l-12.66-5.152a3.49 3.49 0 0 0 .143-.974c0-.72-.209-1.416-.605-2.026l23.833-19.885c.283.264.611.487.966.654v32.139l-3.145-1.28a4.774 4.774 0 0 0 1.065-2.998zm-2.322 44.904l-21.612-48.299a3.745 3.745 0 0 0 1.326-1.368l13.031 5.306c.274 2.407 2.336 4.271 4.76 4.271a4.804 4.804 0 0 0 3.032-1.098l3.865 1.574v35.775a4.997 4.997 0 0 0-3.078 1.438 4.977 4.977 0 0 0-1.324 2.4zm-18.393 44.558l-21.284 19.646 17.12-23.563 3.224.6a3.421 3.421 0 0 0-.034.445c0 1.036.336 2.024.974 2.872zm-90.102 15.101a1.53 1.53 0 0 0 .013-.187c0-.48-.097-.958-.292-1.423l41.54-23.46a3.754 3.754 0 0 0 3.024 1.525c.74 0 1.452-.22 2.073-.638l16.17 28.394c-.273.188-.49.365-.685.56a4.98 4.98 0 0 0-1.416 2.94l-60.427-7.711zm-6.336 2.548a3.749 3.749 0 0 0 6.171-1.621l60.564 7.7c.013.237.04.467.083.69l-31.26 10.155-60.721 5.44a3.649 3.649 0 0 0-.493-1.215l25.656-21.15zm-9.112 30.51l-7.164-2.699 7.16 2.328c-.003.121-.001.244.004.371zm-91.38-214.57l-2.393-.912a4.764 4.764 0 0 0-.944-2.51l17.586-16.19-14.248 19.612zm31.781-22.521l-.164-.458c.17.018.336.028.5.028a4.806 4.806 0 0 0 4.444-3.008l10.877 4.99-15.657-1.552zm109.61-17.048a4.782 4.782 0 0 0 4.129-2.383l13.74 6.287c-.042.174-.062.34-.062.502 0 .487.153.96.436 1.359l-5.597 3.977-32.1-10.429 14.818-2.852c.57 2.064 2.481 3.539 4.637 3.539zm24.761 13.675l-11.005-3.573 5.185-3.682a2.372 2.372 0 0 0 2.355.064l4.558 5.313a4.874 4.874 0 0 0-1.093 1.878zm-6.25 37.771a3.723 3.723 0 0 0-.746-.644l10.575-30.685a5.042 5.042 0 0 0 4.23-.882l11.23 15.46-25.29 16.751zm21.6-31.42l-5.67-3.746c.033-.155.06-.307.078-.459l5.592 4.205zM162.89 234.479v-.003l36.319-4.609a3.791 3.791 0 0 0 2.436 2.625l-11.433 55.577c-.547-.068-1.116.031-1.647.242l-27.264-50.764c1-.708 1.589-1.838 1.589-3.068zm-8.797 41.138c0-1.48-.893-2.837-2.242-3.44l6.98-33.944c.094.011.192.018.292.018.463 0 .917-.086 1.353-.257l27.264 50.761a3.708 3.708 0 0 0-1.124 1.276l-32.873-12.862a3.69 3.69 0 0 0 .35-1.552zm-.847 2.366l21.962 8.585-23.26-7.555a3.763 3.763 0 0 0 1.298-1.03zm-51.745-107.181c.377.09.709.132 1.034.132.507 0 1.027-.09 1.548-.27l14.299 19.77a3.843 3.843 0 0 0-.85 1.147l-.16.426a3.652 3.652 0 0 0-.203 1.164c0 .28.038.564.119.879l-25.772 9.71a5.086 5.086 0 0 0-.821-.475l10.806-32.483zm-8.208-42.953l10.13 5.469c-.03.082-.06.167-.086.258l-.1.433-.01.06c-.023.169-.047.344-.047.53 0 .487.094.96.285 1.425l.205.406a3.75 3.75 0 0 0 2.42 1.835l-3.355 23.05c-.368-.044-.75.006-1.207.11L91.15 129.64a4.883 4.883 0 0 0 2.143-1.791zm19.188-39.206a4.768 4.768 0 0 0 3.35-3.967l1.861.712-3.937 5.41-1.274-2.155zm-1.762 6.34l.479-6.128a3.93 3.93 0 0 0 .302-.032l1.659 2.802-2.44 3.358zm30.126-32.817l8.533.847 12.975 36.178a3.765 3.765 0 0 0-1.617 1.586l-41.513-15.812 14.127-19.444a5.063 5.063 0 0 0 6.128-.777 4.94 4.94 0 0 0 1.367-2.578zm135.73 33.241a3.776 3.776 0 0 0-2.446.004l-14.592-25.813a3.74 3.74 0 0 0 1.281-2.821c0-.78-.253-1.547-.718-2.188l12.298-8.737 11.788 3.83a5.042 5.042 0 0 0 1.43 4.155c.426.428.929.77 1.497 1.021l-10.538 30.55zm59.013 26.863l-14.025-19.302 5.677-1.98a4.614 4.614 0 0 0 3.041 1.149c.257 0 .523-.026.806-.078l5.716 19.735a5.127 5.127 0 0 0-1.215.476zm-2.4 90.101l-57.705-22.008c.083-.321.122-.609.122-.891a3.7 3.7 0 0 0-.695-2.148l32.655-29.523a3.731 3.731 0 0 0 3.556.743l21.204 47.39 1.216 2.724c.14.665.424 1.3.846 1.888l.171.382a3.759 3.759 0 0 0-1.37 1.443zm-23.24 34.518l-16.874 23.223a5.01 5.01 0 0 0-2.557-.698c-.712 0-1.427.15-2.093.452l-16.257-28.543c.352-.392.618-.861.78-1.377l37 6.943zm-36.825-7.865a1.92 1.92 0 0 0 .015-.224c0-.268-.034-.534-.11-.844l59.217-21.759-21.691 29.853-16.226-3.04-21.205-3.986zm-70.56-6.34a3.438 3.438 0 0 0 1.545-.194l15.142 30.312a3.73 3.73 0 0 0-1.096 5.134l-25.653 21.153a3.78 3.78 0 0 0-1.37-.824l11.431-55.58zM92.348 204.45l25.262-9.523a3.767 3.767 0 0 0 2.321 1.874l1.86 34.94a4.802 4.802 0 0 0-3.412 4.588c0 1.794.976 3.4 2.562 4.24l-2.063 7.446a4.498 4.498 0 0 0-1.003-.12c-.194 0-.377.019-.579.05l-26.014-35.805c.366-.219.67-.45.926-.704a5.055 5.055 0 0 0 .14-6.986zm14.566-73.618a3.777 3.777 0 0 0-2.07.646l-.351.282a3.615 3.615 0 0 0-.61.677L93.76 126.97a5.044 5.044 0 0 0-1.065-5.496l16.762-23.066-2.54 32.424zm16.814-18.227l-.176.423a3.672 3.672 0 0 0-.226 1.226c0 .827.285 1.637.806 2.307l-14.981 15.002a3.74 3.74 0 0 0-1.253-.6l2.67-34.089 3.139-4.319 11.082 18.723c-.438.344-.8.796-1.06 1.327zm36.624-9.383l-29.84 9.461a3.74 3.74 0 0 0-3.416-2.198c-.505 0-1.007.109-1.495.325L114.309 91.73l4.344-5.979 41.755 15.903a3.508 3.508 0 0 0-.123.897c0 .214.022.435.068.67zm70.093-57.953a3.756 3.756 0 0 0-3.57-2.601 3.775 3.775 0 0 0-3.257 1.893l-7.258-5.347c.264-.442.456-.904.574-1.38l19.403 6.302-5.892 1.133zm48.584 52.938a3.645 3.645 0 0 0-.337-.956l25.313-16.762 11.62 15.992-36.596 1.726zm29.477 53.305l-20.183-33.675a3.713 3.713 0 0 0 1.128-1.486l44.177 12.71c.25.465.527.848.847 1.168.413.413.91.75 1.477 1.003.105.397.263.76.47 1.084l-23.833 19.882a3.725 3.725 0 0 0-2.569-1.02c-.512 0-1.02.112-1.514.334zm-87.173 110.644c-.426 0-.847.072-1.254.215l-15.143-30.31a3.773 3.773 0 0 0 1.544-2.112l59.129 8.763-.004.089c0 .486.098.964.29 1.423l-41.541 23.462a3.754 3.754 0 0 0-3.02-1.53zM164.05 106.32c.127 0 .248-.01.365-.024l8.84 39.568a3.75 3.75 0 0 0-1.443.94l-41.435-30.703c.322-.565.49-1.2.49-1.849 0-.217-.023-.437-.072-.68l29.841-9.46a3.772 3.772 0 0 0 3.414 2.208zm46.604-40.47a3.279 3.279 0 0 0-1.98-.672c-1.387 0-2.63.889-3.1 2.187l-15.31-3.49 33.833-14.93.082.093-13.525 16.813zm98.522 40.446c.05-.274.074-.531.074-.778a4.821 4.821 0 0 0-4.814-4.817 4.823 4.823 0 0 0-4.817 4.817c0 1.366.574 2.639 1.59 3.554l-11.83 4.123a3.76 3.76 0 0 0-3.377-2.094c-.56 0-1.123.136-1.641.394l-6.41-9.805a3.758 3.758 0 0 0 1.172-2.55l37.16-1.754 3.731 5.127-10.838 3.783zM206.62 229.017l.004-.082c0-.487-.101-.973-.3-1.445l62.503-35.757c.57.76 1.41 1.272 2.357 1.436l-2.09 41.874a3.752 3.752 0 0 0-3.35 2.747l-59.124-8.772zm-31.064-42.966c.29.07.559.104.816.104.536 0 1.061-.121 1.564-.359l22.671 40.116a3.752 3.752 0 0 0-1.52 3.023v.004l-36.315 4.608a3.743 3.743 0 0 0-2.033-2.467l14.817-45.03zm-24.982 8.97c0-.343-.054-.694-.165-1.066l22.59-9.893c.36.73.942 1.317 1.67 1.684l-14.825 45.047a3.435 3.435 0 0 0-.72-.08c-.213 0-.43.022-.667.067l-10.094-32.333a3.741 3.741 0 0 0 2.21-3.425zm-25.954-1.114l18.42 1.315a3.775 3.775 0 0 0 3.764 3.572 3.6 3.6 0 0 0 .67-.067l10.092 32.332c-.215.101-.422.224-.626.372l-33.124-35.832a3.731 3.731 0 0 0 .804-1.692zm-17.416-26.679c.098-.393.146-.759.146-1.11a4.817 4.817 0 0 0-3.63-4.667l3.359-23.084.12-.013 7.17 29.653-7.165-.779zm20.667 2.2v.04l-12.513-1.358-7.242-29.938c.126-.042.25-.092.375-.15l19.918 29.91c-.348.42-.538.944-.538 1.496zM110.714 134.6c0-.884-.31-1.73-.876-2.407l14.956-14.97a3.72 3.72 0 0 0 2.046.788l2.725 49.158c-.147.043-.29.1-.426.172l-19.843-29.797a3.775 3.775 0 0 0 1.418-2.944zm118.098-84.935L242.07 66.6a3.754 3.754 0 0 0-1.045 2.116l-29.061-.504a3.243 3.243 0 0 0-.65-1.693l13.583-16.881a3.794 3.794 0 0 0 3.915.027zm18.968 16.309c0 .48.077.958.23 1.429a3.752 3.752 0 0 0-5.209-1.39l-13.26-16.934c.071-.071.137-.142.198-.213l20.133 13.16a4.821 4.821 0 0 0-2.092 3.948zm25.393 29.948l-25.426-24.435c.496-.66.758-1.43.758-2.241 0-.146-.01-.295-.033-.452l.191-.047a4.802 4.802 0 0 0 3.933 2.04c.92 0 1.807-.26 2.578-.751a3.704 3.704 0 0 0 3.583.095l14.538 25.707-.122.084zm9.062 18.946c0 .772.238 1.511.688 2.152l-25.873 23.363a3.734 3.734 0 0 0-.446-.32l17.684-37.486a3.664 3.664 0 0 0 2.917-.32l6.367 9.748a3.729 3.729 0 0 0-1.337 2.863zm-175.358 53.324l7.739.836 4.993 20.638a3.854 3.854 0 0 0-.42.196L105 170.232a4.81 4.81 0 0 0 1.878-2.04zm98.293-83.503l-3.055 32.664a3.753 3.753 0 0 0-2.552 1.867l-31.942-15.47a3.721 3.721 0 0 0-.02-2.46l35.349-17.696a3.72 3.72 0 0 0 2.22 1.095zm101.304 69.031l-48.139-10.177c.012-.102.02-.206.02-.312 0-.774-.236-1.511-.687-2.146l25.875-23.362a3.736 3.736 0 0 0 3.976.584l20.183 33.676a3.783 3.783 0 0 0-1.228 1.737zm-126.333 28.663c0-.165-.012-.333-.036-.501l51.084-9.15a3.71 3.71 0 0 0 1.28 2.224l-28.204 50.492a3.631 3.631 0 0 0-2.835.008l-22.696-40.147a3.776 3.776 0 0 0 1.407-2.926zm-57.398 7.495l7.141-18.122c.37.06.69.028 1.01-.071l12.82 19.484.654.997a3.72 3.72 0 0 0-1.243 2.124l-18.424-1.316a3.78 3.78 0 0 0-1.958-3.096zm44.462-85.29l32.018 15.508c-.091.33-.135.64-.135.94 0 .7.193 1.38.562 1.977l-22.86 23.393a3.749 3.749 0 0 0-2.267-.779c-.124 0-.242.01-.354.025l-8.845-39.57a3.698 3.698 0 0 0 1.88-1.493zm88.554 35.066c-1.761-.574-3.548.192-4.415 1.694l-44.939-19.053c.145-.41.219-.832.219-1.258 0-.298-.048-.574-.104-.808l65.378-19.8c.314.745.85 1.36 1.536 1.768l-17.675 37.457zm16.077 46.052c-.278 0-.563.037-.864.112l-14.638-39.247a3.775 3.775 0 0 0 1.781-2.047l48.153 10.175a2.04 2.04 0 0 0-.016.247c0 .7.197 1.38.574 1.982l-32.702 29.57a3.752 3.752 0 0 0-2.288-.792zm-38.578-10.242c.52.254 1.065.382 1.624.382a3.75 3.75 0 0 0 3.375-2.098l30.014 14.517a3.707 3.707 0 0 0 .096 2.652l-31.04 17.764-31.463 17.992a3.735 3.735 0 0 0-.781-.77l28.175-50.44zm-28.83-57.838c-.44-.207-.9-.326-1.368-.353l3.055-32.591c1.851-.24 3.274-1.83 3.278-3.711l31.93-10.148c.174.375.404.714.688 1.009l-37.583 45.794zm64.261 69.804l-30.132-14.576c.064-.28.094-.53.094-.775a3.764 3.764 0 0 0-1.465-2.983l15.661-22.533a3.662 3.662 0 0 0 2.326.393l14.67 39.34c-.465.29-.859.678-1.154 1.134zm-64.692-62.81l28.676 44.414a3.79 3.79 0 0 0-.89.924l-53.603-19.715c.071-.3.107-.58.107-.847 0-.846-.292-1.667-.826-2.336l22.787-23.319c.976.944 2.359 1.325 3.749.878zm48.087 21.407l-15.714 22.6c-.48-.21-.98-.316-1.488-.316-.473 0-.939.091-1.387.272l-28.645-44.364c.443-.281.825-.651 1.12-1.088l44.658 18.93.35.149a3.579 3.579 0 0 0-.152 1.021c0 1.07.455 2.077 1.258 2.796zm-74.219 5.103l21.999 8.083 31.483 11.58a3.758 3.758 0 0 0-.213.999l-51.284 9.185a3.76 3.76 0 0 0-3.207-2.348l-1.44-25.541a3.775 3.775 0 0 0 2.662-1.958zm93.768-51.595L206.22 119.34a3.838 3.838 0 0 0-.983-1.218l37.494-45.693c1.325.844 3.13.741 4.37-.262l25.375 24.388a3.738 3.738 0 0 0-.844 2.979zm-139.067 69.627l38.772-17.785a3.755 3.755 0 0 0 2.928 1.78l1.444 25.494.002.039a3.772 3.772 0 0 0-2.705 2.003l-40.478-10.804a2.143 2.143 0 0 0 .037-.727zm40.133 14.011l-22.669 9.924a3.746 3.746 0 0 0-3.226-1.841c-.576 0-1.13.133-1.655.396l-13.424-20.408c.164-.137.31-.301.435-.486l40.543 10.822a3.49 3.49 0 0 0-.098.803c0 .252.03.507.094.79zm36.042-111.386a3.315 3.315 0 0 0 3.156-2.639l29.108.502c.01.094.024.188.04.28l-31.777 10.099a3.761 3.761 0 0 0-1.911-2.41l1.384-5.832zm-78.93 45.06l41.433 30.704a3.748 3.748 0 0 0-.488 1.845c0 .377.06.75.184 1.133l-38.665 17.737a2.367 2.367 0 0 0-1.777-1.173l-2.728-49.146a3.747 3.747 0 0 0 2.041-1.1zm-1.687 53.647c.196.385.502.712.883.942l-7.139 18.098a3.444 3.444 0 0 0-.926-.13c-.148 0-.29.013-.425.03l-4.912-20.297 12.52 1.357zm205.057-42.538l-43.46-12.501a3.47 3.47 0 0 0-.046-1.367l12.473-4.35a4.75 4.75 0 0 0 2.287.595 4.785 4.785 0 0 0 4.424-2.937l11.727-4.088 14.19 19.533a3.38 3.38 0 0 0-.299.256l-.001.002a5.047 5.047 0 0 0-1.295 4.857zM188.86 64.514l16.519 3.765a1.738 1.738 0 0 0-.013.204c0 1.5 1.014 2.8 2.445 3.187l-1.337 5.63a3.47 3.47 0 0 0-.846-.111 3.734 3.734 0 0 0-3.404 2.171l-18.89-8.667a4.82 4.82 0 0 0 5.763-4.72c0-.485-.08-.975-.237-1.46zm-17.522.673l8.131.807a4.809 4.809 0 0 0 1.863 3.78l-9.994-4.587zM202.36 82.84l-35.194 17.617a3.725 3.725 0 0 0-3.118-1.674c-.263 0-.53.033-.81.1L150.41 63.118l18.063 1.788 33.46 15.352c-.052.25-.077.481-.077.704 0 .661.174 1.305.504 1.879zm130.49 132.143l-60.133 22.087a3.78 3.78 0 0 0-2.693-1.966l2.093-41.871a3.746 3.746 0 0 0 3.04-1.991l57.703 22.008c-.081.309-.121.601-.121.886 0 .274.035.548.11.847zm-6.297-114.747l-5.566 1.94-3.518-4.846 8.196-.39a4.276 4.276 0 0 0-.037.542c0 .985.326 1.95.925 2.754zM230.626 46.19l7.557-1.453 33.108 10.753-11.826 8.405a3.744 3.744 0 0 0-2.41-.883c-.209 0-.422.018-.633.056a4.822 4.822 0 0 0-3.826-1.91c-.616 0-1.222.119-1.802.353l-20.546-13.43c.262-.531.395-1.084.395-1.647 0-.083-.007-.163-.017-.244zm-75.09 189.442l-27.565.239a4.797 4.797 0 0 0-4.777-4.354c-.173 0-.358.013-.56.039l-1.763-34.614.071.002c.785 0 1.534-.247 2.18-.717l33.123 35.834a3.788 3.788 0 0 0-.71 3.57zM310.31 75.187l-6.03 3.993L292.96 63.6a5.07 5.07 0 0 0 .827-1.303l16.491 10.88c-.13.318-.195.642-.195.966 0 .357.077.707.227 1.045zm-141.749-11.27l-13.464-6.177a4.47 4.47 0 0 0 .098-.9l25.603 5.838a4.817 4.817 0 0 0-1.217 2.33l-11.02-1.092zm-27.727-3.764l5.054-1.64a4.8 4.8 0 0 0 2.9 2.844l.223.622-8.075-.802a5.277 5.277 0 0 0-.102-1.024zm-40.252 101.575a4.784 4.784 0 0 0-1.586 1.157L88.5 155.143v-25.114a5.081 5.081 0 0 0 1.706-.083l10.377 31.782zm18.263-96.98l12.232-2.197c.168.585.445 1.136.827 1.644L114.262 80.44a4.776 4.776 0 0 0-3.182-1.212 4.824 4.824 0 0 0-4.82 4.817c0 2.312 1.683 4.3 3.953 4.716l-.609 7.753-17.687 24.343a5 5 0 0 0-6.358.609c-1.948 1.95-1.964 5.113-.06 7.065l-9.464 11.146a5.956 5.956 0 0 0-.2-.135l35.268-69.21a5.437 5.437 0 0 0 2.202.472 5.573 5.573 0 0 0 5.568-5.567 4.54 4.54 0 0 0-.028-.49zm-41.846 83.15l10.503 7.747v47.311a5.022 5.022 0 0 0-2.423 1.347c-1.963 1.963-1.963 5.162 0 7.132a4.993 4.993 0 0 0 2.573 1.365l-1.256 12.653a1.453 1.453 0 0 0-.169-.01h-.037l-12.012-75.831a5.595 5.595 0 0 0 2.82-1.714zm141.32 154.538a5.01 5.01 0 0 0 .647-.86l11.086 5.278-11.732-4.418zm97.407-32.488l-20.384 3.143a4.938 4.938 0 0 0-.823-1.65l21.333-19.69a4.807 4.807 0 0 0 3.18 1.206l1.1 10.606a5.517 5.517 0 0 0-4.5 5.442c0 .297.03.595.094.943zm45.727-85.249c-.112 0-.224.013-.335.026l-12.563-79.32a5.533 5.533 0 0 0 3.668-5.204 5.572 5.572 0 0 0-5.565-5.567 5.55 5.55 0 0 0-3.55 1.299L287.354 40.19a5.473 5.473 0 0 0 1.011-3.165 5.572 5.572 0 0 0-5.567-5.565 5.53 5.53 0 0 0-5.36 4.097l-79.514-12.593c-.158-2.921-2.605-5.264-5.55-5.264a5.572 5.572 0 0 0-5.568 5.564c0 .888.217 1.746.646 2.554L117.4 61.505a5.53 5.53 0 0 0-4.096-1.835 5.574 5.574 0 0 0-5.568 5.567c0 1.87.927 3.58 2.491 4.617l-35.269 69.22a5.457 5.457 0 0 0-2.123-.433 5.574 5.574 0 0 0-5.568 5.567 5.573 5.573 0 0 0 5.568 5.564c.121 0 .239-.012.356-.027l12.01 75.817c-2.607.49-4.542 2.788-4.542 5.448a5.572 5.572 0 0 0 5.567 5.564 5.46 5.46 0 0 0 2.489-.612l57.44 57.429a5.527 5.527 0 0 0-.876 2.982 5.574 5.574 0 0 0 5.568 5.567 5.54 5.54 0 0 0 5.069-3.278l79.449 12.581a2.057 2.057 0 0 0-.016.23 5.572 5.572 0 0 0 5.565 5.566 5.574 5.574 0 0 0 5.568-5.567c0-.829-.198-1.649-.59-2.441l71.218-36.286a5.532 5.532 0 0 0 4.091 1.83 5.573 5.573 0 0 0 5.565-5.57c0-1.892-.993-3.666-2.607-4.687l35.134-68.941c.7.301 1.426.453 2.159.453 3.072 0 5.571-2.495 5.571-5.564 0-3.07-2.5-5.567-5.571-5.567z" mask="url(#o)"/>
        </g>
        <g transform="translate(101.492 454.3)">
            <use fill="#000" filter="url(#p)" xlink:href="#q"/>
            <use fill="#FFF" xlink:href="#q"/>
        </g>
        <g transform="translate(101.492 454.3)">
            <use fill="#000" filter="url(#r)" xlink:href="#s"/>
            <use fill="#FFF" xlink:href="#s"/>
        </g>
        <g transform="translate(335.16 102.66)">
            <use fill="#000" filter="url(#t)" xlink:href="#u"/>
            <use fill="#FFF" xlink:href="#u"/>
        </g>
        <g transform="translate(335.16 102.66)">
            <use fill="#000" filter="url(#v)" xlink:href="#w"/>
            <use fill="#FFF" xlink:href="#w"/>
        </g>
        <g>
            <g transform="translate(57.827 59)">
                <use fill="#000" filter="url(#x)" xlink:href="#y"/>
                <use fill="#FFF" xlink:href="#y"/>
            </g>
            <g transform="translate(57.827 59)">
                <use fill="#000" filter="url(#z)" xlink:href="#A"/>
                <use fill="#FFF" xlink:href="#A"/>
            </g>
            <g transform="translate(81.43 89.68)">
                <mask id="D" fill="#fff">
                    <use xlink:href="#B"/>
                </mask>
                <use fill="#000" filter="url(#C)" xlink:href="#B"/>
                <use fill="#BF0711" xlink:href="#B"/>
                <path stroke="#FFF" stroke-width="3" d="M-1.18-.393l16.122 10.54a3 3 0 0 0 3.293-.007l17.17-11.32" mask="url(#D)"/>
                <path fill="#202E78" d="M17.702-3.54h29.504v28.32H17.702z" mask="url(#D)" opacity=".06"/>
            </g>
        </g>
        <g>
            <path fill="#EEC200" d="M139.664 486.022l-2.442-3.402h-6.767a3 3 0 0 0-3 3v18.78a3 3 0 0 0 3 3h23.324a2 2 0 0 0 2-2v-15.978h-13.673l-2.442-3.4z"/>
            <g transform="translate(127.455 482.62)">
                <use fill="#EEC200" xlink:href="#E"/>
                <use fill="#000" fill-opacity=".42" xlink:href="#E"/>
            </g>
        </g>
        <g>
            <g fill="#50B83C">
                <path d="M369.963 121.067c0-.985-.79-1.783-1.765-1.783-.975 0-1.765.798-1.765 1.783 0 .664.364 1.236.896 1.544v2.02h1.737v-2.02c.534-.308.897-.88.897-1.544zm-4.238 14.519l-7.867 7.948a.943.943 0 0 0 0 1.326.923.923 0 0 0 1.311 0l7.87-7.95a.945.945 0 0 0 0-1.324.92.92 0 0 0-1.314 0zm12.813 7.948l-7.867-7.948a.922.922 0 0 0-1.313 0 .945.945 0 0 0 0 1.324l7.87 7.95a.923.923 0 0 0 1.31 0 .94.94 0 0 0 0-1.326z"/>
                <path d="M368.198 123.73c5.834 0 10.59 4.921 10.59 10.777 0 5.857-4.754 10.633-10.59 10.633-5.834 0-10.59-4.834-10.59-10.691 0-5.856 4.756-10.72 10.59-10.72z"/>
                <path d="M378.126 123.474l-2.591-2.048a1.634 1.634 0 0 0-2.31.285l-1.378 1.778a11.604 11.604 0 0 1 5.355 3.875l1.205-1.556a1.672 1.672 0 0 0-.281-2.334zm-17.297-2.074l-2.61 2.063a1.686 1.686 0 0 0-.284 2.35l1.216 1.57a11.566 11.566 0 0 1 5.394-3.9l-1.39-1.795a1.645 1.645 0 0 0-2.326-.288z"/>
            </g>
            <path fill="#FFF" d="M368.198 126.258c4.457 0 8.09 3.759 8.09 8.232 0 4.474-3.633 8.122-8.09 8.122-4.456 0-8.09-3.691-8.09-8.165 0-4.474 3.634-8.189 8.09-8.189z"/>
            <path fill="#50B83C" d="M372.612 133.552h-3.532v-4.46a.885.885 0 0 0-.882-.892.887.887 0 0 0-.883.892v5.349c0 .49.395.892.883.892h4.414c.485 0 .88-.4.88-.892a.884.884 0 0 0-.88-.89z"/>
        </g>
    </g>
</svg>
